<?xml version="1.0" encoding="utf-8"?>
<!-- Generator: Adobe Illustrator 22.0.0, SVG Export Plug-In . SVG Version: 6.00 Build 0)  -->
<svg version="1.1" id="Layer_1" xmlns="http://www.w3.org/2000/svg" xmlns:xlink="http://www.w3.org/1999/xlink" x="0px" y="0px"
	 viewBox="0 0 120 120" style="enable-background:new 0 0 120 120;" xml:space="preserve">
<style type="text/css">
	.st0{fill:#1880B6;}
	.st1{fill:#FF6673;stroke:#324249;stroke-width:2;stroke-linecap:round;stroke-linejoin:round;}
	.st2{fill:#DAECF2;stroke:#324249;stroke-width:2;stroke-linecap:round;stroke-linejoin:round;}
	.st3{fill:none;stroke:#324249;stroke-width:2;stroke-linecap:round;stroke-linejoin:round;}
	.st4{fill:#324249;stroke:#324249;stroke-width:2;stroke-linecap:round;stroke-linejoin:round;}
	.st5{fill:#324249;}
</style>
<rect id="Call_to_Action" class="st0" width="120" height="120"/>
<g transform="translate(4 4)">
	<rect x="58" y="58" class="st1" width="26" height="26"/>
	<rect x="28" y="58" class="st2" width="26" height="26"/>
	<path class="st3" d="M33,79c1-3,3.3-5,8-5s7,2,8,5"/>
	<circle class="st3" cx="41" cy="67" r="4"/>
	<rect x="58" y="28" class="st2" width="26" height="26"/>
	<rect x="28" y="28" class="st1" width="26" height="26"/>
	<path class="st4" d="M34,46h12 M34,41h14 M34,36h10"/>
	<polyline class="st3" points="65,38 78,38 76,46 67,46 63,34 	"/>
	<circle class="st5" cx="68.5" cy="48.5" r="1.5"/>
	<circle class="st5" cx="74.5" cy="48.5" r="1.5"/>
	<path class="st4" d="M64,71h14 M71,64v14"/>
</g>
</svg>
