<?xml version="1.0" encoding="utf-8"?>
<!-- Generator: Adobe Illustrator 22.0.0, SVG Export Plug-In . SVG Version: 6.00 Build 0)  -->
<svg version="1.1" id="Layer_1" xmlns="http://www.w3.org/2000/svg" xmlns:xlink="http://www.w3.org/1999/xlink" x="0px" y="0px"
	 viewBox="0 0 120 120" style="enable-background:new 0 0 120 120;" xml:space="preserve">
<style type="text/css">
	.st0{fill:#1880B6;}
	.st1{fill:#DAECF2;stroke:#324249;stroke-width:2;stroke-linecap:round;stroke-linejoin:round;}
	.st2{fill:#324249;}
	.st3{fill:#FF6673;stroke:#324249;stroke-width:2;stroke-linecap:round;stroke-linejoin:round;}
</style>
<rect id="Call_to_Action" class="st0" width="120" height="120"/>
<g transform="translate(5 5)">
	<g transform="translate(0 26)">
		<polygon class="st1" points="27,28 55,28 55,56 27,56 		"/>
		<path class="st2" d="M49,37.5c-0.6,0.3-1.2,0.4-1.9,0.5c0.7-0.4,1.2-1,1.4-1.8c-0.6,0.4-1.3,0.6-2.1,0.8c-0.6-0.6-1.5-1-2.4-1
			c-1.8,0-3.3,1.5-3.3,3.3c0,0.3,0,0.5,0.1,0.7c-2.7-0.1-5.1-1.4-6.8-3.4c-0.3,0.5-0.4,1-0.4,1.6c0,1.1,0.6,2.1,1.5,2.7
			c-0.5,0-1-0.2-1.5-0.4c0,0,0,0,0,0c0,1.6,1.1,2.9,2.6,3.2c-0.3,0.1-0.6,0.1-0.9,0.1c-0.2,0-0.4,0-0.6-0.1c0.4,1.3,1.6,2.3,3.1,2.3
			c-1.1,0.9-2.5,1.4-4.1,1.4c-0.3,0-0.5,0-0.8,0c1.5,0.9,3.2,1.5,5,1.5c6,0,9.3-5,9.3-9.3c0-0.1,0-0.3,0-0.4
			C48,38.8,48.6,38.2,49,37.5z"/>
	</g>
	<g transform="translate(28 20)">
		<polygon class="st3" points="27,28 55,28 55,56 27,56 		"/>
		<polygon class="st2" points="36,36 36,48 46,42 		"/>
	</g>
	<g transform="translate(6)">
		<polygon class="st1" points="27,28 55,28 55,56 27,56 		"/>
		<path class="st2" d="M42,50v-7h3l0.5-3H42v-1.5c0-1,0.5-1.5,1.5-1.5H45v-3c-0.5,0-1.6,0-2.5,0C40,34,39,35.5,39,38v2h-3v3h3v7H42z
			"/>
	</g>
</g>
</svg>
