<?xml version="1.0" encoding="utf-8"?>
<!-- Generator: Adobe Illustrator 22.0.0, SVG Export Plug-In . SVG Version: 6.00 Build 0)  -->
<svg version="1.1" id="Layer_1" xmlns="http://www.w3.org/2000/svg" xmlns:xlink="http://www.w3.org/1999/xlink" x="0px" y="0px"
	 viewBox="0 0 120 120" style="enable-background:new 0 0 120 120;" xml:space="preserve">
<style type="text/css">
	.st0{fill:#1880B6;}
	.st1{fill:#FF6673;stroke:#324249;stroke-width:2;stroke-linecap:round;stroke-linejoin:round;}
	.st2{fill:#DAECF2;stroke:#324249;stroke-width:2;stroke-linecap:round;stroke-linejoin:round;}
</style>
<rect id="Call_to_Action" class="st0" width="120" height="120"/>
<g transform="translate(1 3)">
	<path class="st1" d="M86,44H44c-2.2,0-4,1.8-4,4v26c0,2.2,1.8,4,4,4h8v8l12-8h22c2.2,0,4-1.8,4-4V48C90,45.8,88.2,44,86,44z"/>
	<path class="st2" d="M32,28h42c2.2,0,4,1.8,4,4v26c0,2.2-1.8,4-4,4h-8v8l-12-8H32c-2.2,0-4-1.8-4-4V32C28,29.8,29.8,28,32,28z"/>
	<circle class="st2" cx="63" cy="45" r="3"/>
	<circle class="st2" cx="53" cy="45" r="2"/>
	<circle class="st2" cx="43" cy="45" r="1"/>
</g>
</svg>
