<?xml version="1.0" encoding="utf-8"?>
<!-- Generator: Adobe Illustrator 22.0.0, SVG Export Plug-In . SVG Version: 6.00 Build 0)  -->
<svg version="1.1" id="Layer_1" xmlns="http://www.w3.org/2000/svg" xmlns:xlink="http://www.w3.org/1999/xlink" x="0px" y="0px"
	 viewBox="0 0 120 120" style="enable-background:new 0 0 120 120;" xml:space="preserve">
<style type="text/css">
	.st0{fill:#1880B6;}
	.st1{fill:#DAECF2;stroke:#324249;stroke-width:2;stroke-linecap:round;stroke-linejoin:round;}
	.st2{fill:#FF6673;stroke:#324249;stroke-width:2;stroke-linecap:round;stroke-linejoin:round;}
</style>
<rect id="Call_to_Action" y="0" class="st0" width="120" height="120"/>
<g transform="translate(1 11)">
	<path class="st1" d="M44,26h30c8.8,0,16,7.2,16,16l0,0c0,8.8-7.2,16-16,16H44c-8.8,0-16-7.2-16-16l0,0C28,33.2,35.2,26,44,26z"/>
	<path class="st2" d="M65,53.3l11-4.5c1.9-0.8,4.1,0,5.1,1.7l3.3,5.8c2.3,3.9,0.9,8.9-3,11.2L75.3,71c-3.4,2-7.8,0.8-9.8-2.6l-11-19
		c-1-1.7-0.4-3.9,1.3-4.9c1.7-1,3.9-0.4,4.9,1.3L65,53.3z"/>
	<path class="st1" d="M57,31v6 M69.5,37l-4.7,3.8 M41.4,50.6l5.8-1.3 M44.5,37l4.7,3.8"/>
</g>
</svg>
