<?xml version="1.0" encoding="utf-8"?>
<!-- Generator: Adobe Illustrator 22.0.0, SVG Export Plug-In . SVG Version: 6.00 Build 0)  -->
<svg version="1.1" id="Layer_1" xmlns="http://www.w3.org/2000/svg" xmlns:xlink="http://www.w3.org/1999/xlink" x="0px" y="0px"
	 viewBox="0 0 120 120" style="enable-background:new 0 0 120 120;" xml:space="preserve">
<style type="text/css">
	.st0{fill:#1880B6;}
	.st1{fill:#FF6673;stroke:#324249;stroke-width:2;stroke-linecap:round;stroke-linejoin:round;}
	.st2{fill:#DAECF2;stroke:#324249;stroke-width:2;stroke-linecap:round;stroke-linejoin:round;}
</style>
<rect id="Call_to_Action" y="0.2" class="st0" width="120" height="120"/>
<g transform="translate(3 2)">
	<polygon class="st1" points="42,33.8 42,50.8 44,51.8 44,53.8 36,53.8 36,51.8 38,50.8 38,33.8 30,33.8 28,34.8 28,29.8 52,29.8 
		52,34.8 50,33.8 	"/>
	<polygon class="st1" points="76,67.8 76,87.8 72,87.8 72,67.8 62,67.8 62,63.8 86,63.8 86,67.8 	"/>
	<path class="st2" d="M30.8,67.8c-0.2-0.3-0.4-0.7-0.6-1.3C30.1,66,30,65.4,30,64.8c0-1.1,0.2-1.9,0.7-2.4c0.5-0.5,1.1-0.7,1.9-0.7
		h17.5c0.2,0.3,0.4,0.7,0.6,1.3c0.2,0.5,0.3,1.1,0.3,1.7c0,1.1-0.2,1.9-0.7,2.4c-0.5,0.5-0.8,0.7-1.6,0.7H43v20c-2.7,0-4.3-0.3-5-1
		c-1-1-1-1.8-1-2.5V67.8L30.8,67.8z M66.6,56.4c-0.2,0.4-0.4,0.7-0.6,1c-0.2,0.3-0.5,0.6-0.7,0.8s-0.5,0.3-0.8,0.4s-0.5,0.1-0.8,0.1
		c-0.4,0-0.7-0.1-0.9-0.3s-0.4-0.5-0.4-1c0-0.1,0-0.3,0-0.5c0-0.2,0.1-0.4,0.2-0.6c0.8-2.1,1.7-4.1,2.5-6c0.8-1.9,1.6-3.7,2.4-5.4
		c0.8-1.7,1.5-3.2,2.2-4.5c0.7-1.4,1.3-2.5,1.9-3.5c0.6-1,1.1-1.7,1.5-2.2c0.4-0.5,0.7-0.8,0.9-0.8c0.4,0,0.7,0.1,0.9,0.4
		s0.3,0.6,0.3,0.9c0,0.3-0.1,0.6-0.2,0.9c-0.3,0.7-0.6,1.4-0.9,2.3c-0.3,0.9-0.7,1.8-1.1,2.7c-0.4,1-0.8,1.9-1.2,3
		c-0.4,1-0.8,2-1.2,3c-0.4,1-0.8,2-1.2,2.9c-0.4,0.9-0.8,1.8-1.1,2.6c-0.3,0.8-0.6,1.5-0.9,2.1C67,55.5,66.8,56,66.6,56.4z M86,33.2
		c0,0.2-0.1,0.6-0.2,1s-0.4,0.8-0.6,1.3c-0.3,0.4-0.6,0.8-1,1.1S83.4,37,82.9,37c-0.1,0-0.2,0-0.4,0c-0.2,0-0.3-0.1-0.5-0.1
		c-0.2-0.1-0.3-0.2-0.4-0.3c-0.1-0.1-0.2-0.3-0.2-0.6c0-0.1,0-0.3,0.1-0.5c0.1-0.2,0.2-0.5,0.3-0.7c0.1-0.3,0.2-0.5,0.3-0.7
		c0.1-0.2,0.1-0.4,0.1-0.6c0-0.4-0.3-0.8-0.8-1c-0.5-0.2-1.4-0.3-2.7-0.3c-1.3,0.1-2.4,0.1-3.4,0.3c-1,0.1-1.9,0.3-2.8,0.5
		c-0.9,0.2-1.6,0.4-2.4,0.7c-0.7,0.3-1.5,0.5-2.2,0.8c-0.7,0.3-1.4,0.6-2.2,0.9c-0.7,0.3-1.5,0.6-2.3,1c-0.1,0-0.2,0.1-0.2,0.1
		s-0.1,0-0.2,0c-0.2,0-0.3,0-0.5-0.1c-0.1-0.1-0.3-0.2-0.4-0.4s-0.2-0.3-0.2-0.5C62,35.1,62,34.9,62,34.6c0-0.3,0.2-0.7,0.7-1.2
		c0.5-0.4,1.1-0.9,1.9-1.3c0.8-0.4,1.8-0.9,2.9-1.3c1.1-0.4,2.3-0.8,3.5-1.1c1.3-0.3,2.6-0.6,4-0.8s2.8-0.3,4.1-0.3
		c1.2,0,2.2,0.1,3.1,0.3c0.9,0.2,1.6,0.5,2.1,0.9s1,0.9,1.3,1.4C85.8,32,86,32.6,86,33.2z"/>
</g>
</svg>
