<?xml version="1.0" encoding="utf-8"?>
<!-- Generator: Adobe Illustrator 22.0.0, SVG Export Plug-In . SVG Version: 6.00 Build 0)  -->
<svg version="1.1" id="Layer_1" xmlns="http://www.w3.org/2000/svg" xmlns:xlink="http://www.w3.org/1999/xlink" x="0px" y="0px"
	 viewBox="0 0 120 120" style="enable-background:new 0 0 120 120;" xml:space="preserve">
<style type="text/css">
	.st0{fill:#1880B6;}
	.st1{fill:#FF6673;stroke:#324249;stroke-width:2;stroke-linecap:round;stroke-linejoin:round;}
	.st2{fill:#DAECF2;stroke:#324249;stroke-width:2;stroke-linecap:round;stroke-linejoin:round;}
</style>
<rect id="Call_to_Action" class="st0" width="120" height="120"/>
<g transform="translate(1 1)">
	<path class="st1" d="M28,59h8 M37.1,37.1l5.7,5.7 M59,28v8 M80.9,37.1l-5.7,5.7 M90,59h-8 M80.9,80.9l-5.7-5.7 M59,90v-8
		 M37.1,80.9l5.7-5.7"/>
	<polygon class="st2" points="59,70.9 52.5,74.7 50.6,67.4 43.3,65.5 47.1,59 43.3,52.5 50.6,50.6 52.5,43.3 59,47.1 65.5,43.3 
		67.4,50.6 74.7,52.5 70.9,59 74.7,65.5 67.4,67.4 65.5,74.7 	"/>
</g>
</svg>
